<?xml version="1.0" encoding="UTF-8"?>
<svg id="Layer_1" data-name="Layer 1" xmlns="http://www.w3.org/2000/svg" viewBox="0 0 630.81 84.88">
  <defs>
    <style>
      .cls-1 {
        fill: none;
      }

      .cls-2 {
        fill: #010101;
      }

      .cls-3 {
        fill: #fff;
      }

      .cls-4 {
        fill: #f04e4d;
      }

      .cls-5 {
        fill: #f04e4c;
      }
    </style>
  </defs>
  <path class="cls-5" d="M143.73,33.42c-1.55-3.88-3.55-6.55-4.58-7.81-.27-.34-5.81-7.16-13.78-9.55-10.68-3.21-22.59.43-30.34,9.29-1.24.35-2.49.68-3.79.9-5.23.8-7.94.85-12.89.75-9.21-.39-12.96-3.5-20.65-5.19h0c-1.83-1.09-8.76-4.94-17.67-3.29-1.09.2-13.27,2.68-18.27,14.48-2.83,6.67-2.9,15.2,1.29,21.59,6.87,10.49,22.18,10.55,30.81,10.59,15.52.07,16.43-5.46,30.96-4.63,11.09.63,11.95,3.93,27.8,5.15,12.55.97,18.01-.63,22.13-2.93,2.36-1.31,7.44-4.23,10.04-10.2,3.44-7.91.24-15.91-1.06-19.14Z"/>
  <path class="cls-3" d="M127.89,30.97c-2.82-1.87-7.09-2.11-9.84-1.21-1.07.29-2.44.96-2.56,2.16-.04,1.29,1.59,1.18,2.58.91,1.19-.28,2.47-.48,3.73-.38,2.78.15,5.54,1.66,7.24,3.86,1.04.94,1.83,4.26,3.43,3.71l.05-.02c2.67-1.78-2.04-7.6-4.63-9.02Z"/>
  <path class="cls-3" d="M43.11,51.51c-1.23.04-2.52-.02-3.73-.35-2.69-.7-5.11-2.71-6.34-5.21-.83-1.13-.96-4.54-2.64-4.31h-.06c-2.97,1.24.51,7.87,2.77,9.76,2.39,2.39,6.54,3.46,9.41,3.12,1.1-.08,2.58-.46,2.93-1.61.3-1.25-1.33-1.47-2.35-1.4Z"/>
  <g>
    <g>
      <path class="cls-2" d="M243.8,80.48c-1.32-.66-2.2-1.54-3.09-2.87-1.87-3.31-2.2-5.29-1.98-8.82.22-5.29-.77-10.69-.44-15.98.44-7.61-.66-18.3-.66-25.8,0-.55,0-1.43-.77-1.54-.66,0-.88,1.1-1.1,1.54-1.98,3.53-3.97,7.94-5.95,11.24-3.86,5.29-7.28,10.91-10.36,16.65-1.32,2.43-2.87,3.75-5.62,3.86-2.87.11-5.62-.11-7.39-3.09-3.53-6.06-7.06-12.24-10.69-18.19-.77-1.32-1.43-2.65-2.2-3.86-1.87-2.76-4.19-5.18-5.51-8.38-.11-.22-.55-.66-.77-.66s-.22.66-.22.88v6.5h.11c.22,6.95.99,13.89.55,20.73-.22,5.73.88,11.58.44,17.31-.11,1.32.22,2.65.22,4.08.11,3.2-1.54,4.96-4.85,5.51-2.2.33-4.41.55-6.5.66-1.87.22-3.53-1.21-4.08-3.2-.88-2.76-.66-5.73-.77-8.71-.66-10.91-1.43-21.83-1.98-32.74-.33-7.28.55-14.44.11-21.61-.11-2.21-.55-4.41,0-6.5.44-1.98,1.43-2.98,3.31-3.2,4.74-.44,9.37-.55,14-.11,1.65.11,2.76.88,3.86,2.42,3.86,5.4,7.17,11.24,11.24,16.43,3.09,4.08,5.95,8.27,8.93,12.35l.99,1.1c.99,1.1,1.54,1.1,2.32-.33,5.73-8.71,10.58-17.97,16.76-26.57,1.65-2.09,3.42-3.86,6.17-4.19,1.21-.11,2.43.11,3.64.11,2.98,0,5.73-.55,8.71-.22,3.2.33,4.08,1.43,4.19,4.52.55,10.47,0,20.94.55,31.42.22,5.07.11,10.47.99,15.32.99,6.39-.11,11.58.22,17.86.22,3.53-1.54,5.73-5.29,6.5-2.65.55-4.3.55-7.06-.44Z"/>
      <g>
        <path class="cls-4" d="M482.99,34.51c6.06,0,12.24-.33,18.41-.66,1.1,0,2.54.22,3.53-.55,5.51-4.41,6.28-9.7,2.42-15.32-.66-.88-1.54-1.43-2.65-1.76-3.09-.88-6.28-.88-9.37-1.21-4.41-.44-8.82.11-13.34.11-1.32.11-1.54.66-1.54,1.87v6.61l.33,8.71c0,1.76.55,2.21,2.21,2.21Z"/>
        <path class="cls-4" d="M358.36,45.53c-6.55.86-12.72,1.86-19.2,5.61-2.75,1.69-4.34,4.9-4.84,8.02-.56,3.95,3.42,6.61,6.88,7.27,2.61.48,5.41.87,7.99.47l.1-.02c3.31-.65,6.04-2.91,8-5.6,2.33-3.2,3.72-6.61,4.97-10.07.46-1.51,1.23-3.48.49-5.01-.77-1.11-3.09-.71-4.39-.66Z"/>
        <path class="cls-4" d="M304.9,16.59c-2.21-.07-4.33-.15-6.54-.3-4.33-.3-8.66.3-12.99.08-.88-.08-.88.45-.79.97.18,1.2.44,2.4.44,3.67-.02.74,0,1.49.02,2.24.03.29.06.6.1.94.3,2.99.48,5.65.58,8.11.16.55.54.75,1.33.69,2.38,0,4.68-.37,6.45-.22,4.68.15,8.75-.37,12.81-.67,1.94-.07,3.53-1.27,4.59-2.62.88-1.27,1.41-2.77,2.03-4.12.62-1.72.71-3.67-.35-5.02-1.77-2.25-4.33-3.67-7.69-3.74Z"/>
        <path class="cls-4" d="M505.26,47.07c-3.64,0-6.61.22-9.37.22-3.64-.11-7.17-.22-10.8-.22q-3.97-.11-3.75,3.97c0,.22-.11.55,0,.77.33,4.74.33,8.71.33,13.56-.11,1.21.33,1.65,1.65,1.65,7.94,0,15.87-.66,23.81-.99,2.32-.11,4.74-1.32,5.73-3.86.77-1.98,1.21-3.42,1.21-5.51.22-6.06-5.07-9.15-8.82-9.59Z"/>
        <path class="cls-2" d="M327.11,25.74c.49-3.77.49-7.63-1.77-10.86-3.74-5.29-8.76-9.24-16.04-10.23-3.54-.54-7.18-.45-10.83-.36-8.37,0-16.73-.72-25.1-.18-3.15.18-3.84.63-3.74,3.41v.99c-.3,6.26-.66,12.58-.54,18.9-.06,4.32,0,8.65.28,12.98.21,3.64.36,7.27.46,10.92,0,.27,0,.54,0,.81-.1,2.87-.39,5.74.1,8.71,0,.03.01.05.02.07,0,.92-.01,1.83-.02,2.75-.11,3.53-.44,7.06.11,10.69.44,2.87,2.09,4.63,5.07,5.07,2.2.33,4.3-.11,6.39-.11,2.32-.11,3.09-1.32,3.64-3.09.22-.77.33-1.54.33-2.32,0-5.59.42-11.18.11-16.76-.33-5.91.2-5.47.32-11.85,3.7,0,6.84-.09,10.6-.09h.69c2.66,0,5.31.09,7.97,0,3.54-.09,6.89-1.08,10.14-2.24,4.63-1.62,7.68-6.1,10.04-9.96,1.08-1.8,1.48-5.12,1.77-7.27ZM312.93,25.35c-.62,1.35-1.15,2.85-2.03,4.12-1.06,1.35-2.65,2.55-4.59,2.62-4.06.3-8.13.82-12.81.67-1.77-.15-4.06.22-6.45.22-.79.06-1.17-.13-1.33-.69-.11-2.46-.28-5.12-.58-8.11-.03-.35-.07-.66-.1-.94-.03-.75-.04-1.5-.02-2.24,0-1.27-.26-2.47-.44-3.67-.09-.52-.09-1.05.79-.97,4.33.22,8.66-.37,12.99-.08,2.21.15,4.33.23,6.54.3,3.36.08,5.92,1.5,7.69,3.74,1.06,1.35.97,3.29.35,5.02Z"/>
        <path class="cls-2" d="M378.83,40.51c-1.15-11.71-1.05-25.9-12.76-32.58-7.14-4.07-15.53-4.77-23.46-3.3-2.98.55-5.94,1.14-8.01,3.43-1.15,1.39-.58,3.01-.07,4.53,1.1,3.31,1.41,7.1,5.99,5.89,4.9-1.16,10.72-.97,15.58,1.43,3.61,1.8,6.35,4.26,6.94,8.47.19.91.34,1.7.46,2.57.22,1.55.49,3.15-1.45,3.43-7.8.28-13.97.88-19.53,2.23-8.02,1.63-14.22,5.25-18.78,12.16-2.47,3.3-3.26,8.68-2.91,12.72.89,10.02,11.27,15.96,20.2,17.66,8.1,1.63,16.54-1.73,22.18-7.78.31-.29.74-.82,1.08-.88.38-.1.49.52.46,1.48-.04,1.47-.11,2.86-.29,4.29-.16,1.23-.2,2.76,1.01,3.45,1.67,1,4.78.34,7.08-.02,3.38-.39,5.44-1.05,5.62-4.89v-.1c.24-5.67.74-11.32.64-17.06.22-5.12.6-11.08,0-17.15ZM362.25,51.2c-1.26,3.46-2.64,6.87-4.97,10.07-1.96,2.69-4.69,4.95-8,5.6l-.1.02c-2.58.4-5.38.01-7.99-.47-3.46-.66-7.44-3.32-6.88-7.27.51-3.12,2.09-6.33,4.84-8.02,6.48-3.76,12.65-4.75,19.2-5.61,1.3-.05,3.62-.44,4.39.66.73,1.53-.03,3.5-.49,5.01Z"/>
        <path class="cls-2" d="M440.64,18.19c1.98-.22,2.43-.44,3.2-1.54,1.76-1.98,1.76-4.08,1.98-6.39.33-2.32-.55-3.97-2.54-4.96-1.65-.77-3.31-.88-5.07-.99-2.83-.21-5.65-.29-8.48-.31-2.92-.02-5.84.02-8.75.07-4.1-.12-8.16-.64-12.29-.64-.89-.02-1.77,0-2.66.01-5.62.13-11.25.87-16.96.87-2.54.11-4.41.66-5.62,3.09-.77,1.43-.55,2.76-.77,4.85-.22.88.11,1.98.33,3.42.22,2.32,1.32,3.31,3.53,3.75.38.09.75.15,1.13.19,1.53.18,3.07,0,4.6-.06,1.72.02,3.46.05,5.19.02,1.98.02,3.97.02,5.95-.1.38.27.53.78.53,1.6-.22,4.85,0,11.69.11,16.54.22,6.39.77,12.68.22,19.07-.55,6.28,0,12.57-.11,18.96,0,2.65,1.21,4.63,3.75,5.62,1.82.7,3.73.86,5.62.58,1.08-.16,2.16-.47,3.2-.91,2.54-1.1,4.96-2.43,4.96-5.95-.11-6.83.11-13.56-.11-20.39-.33-9.59-.99-20.73-1.54-30.32,0-1.54-.33-2.76-.22-3.97.11-.99.77-1.65,1.65-1.65,1,.1,1.99.11,2.98.07.29-.01.59-.02.88-.04,1.64.13,3.27.02,4.84-.09,1.63.07,3.16.16,5.09.16.13-.03.28-.05.43-.07,1.52-.24,3.57-.18,4.98-.48Z"/>
        <path class="cls-2" d="M446.71,29.19c-.06-.02-.11-.04-.17-.06-1.17-.47-2.38-.76-3.59-.84-1.34-.09-2.69.09-3.99.56-.05.02-.1.03-.15.05-.7.27-1.28.64-1.76,1.08-.66.6-1.12,1.35-1.37,2.21-.16.54-.23,1.12-.23,1.74.02,1.05.01,2.1,0,3.15,0,.02,0,.03,0,.05.03.64.04,1.27.06,1.91.1,3.5.1,6.98,0,10.48.51,7.13.74,14.19.53,21.3-.02.64-.03,1.27-.06,1.91.01,1.06.02,2.13,0,3.2,0,1.64.53,2.98,1.6,3.95.48.44,1.05.8,1.76,1.08.18.07.36.13.54.19,1.18.37,2.39.5,3.6.42,1.12-.07,2.21-.33,3.25-.72,1.07-.4,2.23-.59,2.98-1.53.57-.71.74-1.65.77-2.56.06-1.58.07-3.17.13-4.76.07-2.13.11-4.27.13-6.41.03-4.08-.36-8.15-.36-12.22-.33-4.83.07-9.59.44-14.34.08-1.03.15-2.06.22-3.1.03-.52.07-1.04.1-1.56-.01-.58-.1-1.1-.25-1.56-.64-1.93-2.38-2.85-4.18-3.63Z"/>
        <path class="cls-2" d="M520.03,40.9c-2.98-1.76-2.87-1.87-1.21-4.85.55-.88.99-1.65,1.43-2.54,1.65-3.31,2.76-6.72,2.98-10.36.55-7.83-5.07-14.11-12.02-17.2-5.18-2.32-10.91-2.09-16.43-2.09-2.09-.11-4.19.33-6.28.11-6.83-.44-13.45-.11-20.17.77-1.1.22-2.32.33-2.43,1.98-.22,5.51-.66,10.91-.66,16.43,0,4.08.66,8.05.66,12.02-.11,7.06-.22,14,.22,20.95.22,5.73-.77,11.58.22,17.2v3.31c.11,1.65,1.65,3.75,2.87,3.86,1.76.11,3.64.33,5.4.33,6.72-.11,13.34-.44,19.95-.55,5.51-.11,11.02-.11,16.54-.66,5.18-.55,8.6-3.75,11.69-7.39,2.54-2.98,3.64-6.84,4.85-10.69,2.32-7.39-1.43-16.98-7.61-20.61ZM480.45,23.59v-6.61c0-1.21.22-1.76,1.54-1.87,4.52,0,8.93-.55,13.34-.11,3.09.33,6.28.33,9.37,1.21,1.1.33,1.98.88,2.65,1.76,3.86,5.62,3.09,10.91-2.42,15.32-.99.77-2.43.55-3.53.55-6.17.33-12.35.66-18.41.66-1.65,0-2.21-.44-2.21-2.21l-.33-8.71ZM514.08,56.66c0,2.09-.44,3.53-1.21,5.51-.99,2.54-3.42,3.75-5.73,3.86-7.94.33-15.87.99-23.81.99-1.32,0-1.76-.44-1.65-1.65,0-4.85,0-8.82-.33-13.56-.11-.22,0-.55,0-.77q-.22-4.08,3.75-3.97c3.64,0,7.17.11,10.8.22,2.76,0,5.73-.22,9.37-.22,3.75.44,9.04,3.53,8.82,9.59Z"/>
      </g>
      <path class="cls-2" d="M599.3,68.35c-1.21-3.42-1.21-3.31-4.85-3.31h-1.32c-1.58,0-2.95.01-4.24.03-.52-.04-1.18-.03-2.06-.03h-1.32c-3.16,0-5.47.04-8.02.13-1.45.05-2.97.12-4.77.2-4.14.6-8.23.73-12.33.52-1.91-.1-3.82-.27-5.75-.52-.55,0-1.1,0-.99-.77.22-4.52-.44-8.82-.22-14.11.33-8.27.11-16.65,0-25.13,0-2.2.22-4.41.33-6.5.22-3.86,1.1-7.83-.11-11.69-.44-1.21-.99-1.98-2.21-2.42-4.08-1.76-9.26-1.21-13.45-.66-1.1.11-1.32.99-1.43,1.76-.22,2.21-.11,4.19-.11,6.39.11,10.03,0,19.95-.33,29.99-.33,7.17.88,14.11.66,22.05-.55,3.53.88,7.61.99,11.91.11.99.11,2.43,1.32,2.98,2.09.77,5.18,1.43,7.5,1.54,3.64.33,7.17.22,10.8.22,5.07,0,10.25.22,15.32.33,1.05,0,2.03-.05,2.96-.12,1.56.04,3.11.09,4.66.12,5.95,0,9.59-1.43,15.54-1.32,1.98,0,3.53-1.21,3.86-3.09.66-3.2.66-5.51-.44-8.49Z"/>
      <path class="cls-2" d="M624.13,42.53c-3.53-.44-8.6-.33-12.02-.33-7.72.11-15.21,1.54-22.82,1.32-1.04-.06-1.58-.28-1.85-.77-.19-.34-.25-.8-.25-1.44.02-1.25.06-2.47.09-3.67,0,.06,0,.1.02.1,0,0,0-.09-.01-.21,0-.09,0-.19,0-.28.02-.23.09-.51.27-.71.31-.36.88-.45,1.72-.45,4.74.18,11.13-.18,15.76-.18,2.32,0,3.97-.74,5.18-2.4.66-.92.44-2.4.77-3.41.88-2.58-1.21-4.88-4.41-4.98-2.76-.18-5.51-.09-8.38-.09,0,0-6.83-.18-9.15-.09-.86,0-1.43-.03-1.8-.17.02-1.42-.04-2.84-.17-4.26-.04-.4-.07-.8-.12-1.2-.02-.35-.01-.64.03-.89.15-.87.71-1.21,1.73-1.21,7.06-.11,14,0,20.95-.44,2.53-.16,5.14.64,7.65.06,2.41-.56,2.73-3.03,2.61-5.13-.13-2.13.33-5.26-1.11-7.07-1.58-1.98-5.23-1.98-7.5-1.74-6.69.7-12.86,1.22-19.62.88-4.41-.22-9.81,0-14.11.44-5.62.55-6.06,2.09-6.17,7.61-.06,2.75.02,5.26.07,7.72-.16,5.03-.62,10.07-.52,15.19.04,1.39.08,2.78.13,4.17-.2,4.12-.53,8.24.2,12.36.44,2.54,1.21,4.63,3.97,5.73,1.43.55,2.87.77,4.41.66,6.28-.44,13.78-.77,20.06-.77,7.17,0,17.64-.22,24.69-.44,3.53-.22,3.97-3.86,4.08-9.04-.77-2.53-1.32-4.52-4.41-4.85Z"/>
    </g>
    <g>
      <path class="cls-1" d="M127.89,30.97c-2.82-1.87-7.09-2.11-9.84-1.21-1.07.29-2.44.96-2.56,2.16-.04,1.29,1.59,1.18,2.58.91,1.19-.28,2.47-.48,3.73-.38,2.78.15,5.54,1.66,7.24,3.86,1.04.94,1.83,4.26,3.43,3.71l.05-.02c2.67-1.78-2.04-7.6-4.63-9.02Z"/>
      <path class="cls-1" d="M43.11,51.51c-1.23.04-2.52-.02-3.73-.35-2.69-.7-5.11-2.71-6.34-5.21-.83-1.13-.96-4.54-2.64-4.31h-.06c-2.97,1.24.51,7.87,2.77,9.76,2.39,2.39,6.54,3.46,9.41,3.12,1.1-.08,2.58-.46,2.93-1.61.3-1.25-1.33-1.47-2.35-1.4Z"/>
    </g>
    <path class="cls-2" d="M163.05,40.8c-.14-1.3-.28-2.53-.32-3.73-.13-9.24-4.75-16.18-8.76-21.19-2.28-2.91-4.84-5.2-7.67-6.83-12-6.92-27.07-8.01-39.28-3.13-3.3,1.32-10.49,4.29-16.35,11.72-1.47,1.86-5.28,7.08-6.97,14.93-.43,2.02-1.58,8.2.08,15.91.95,4.4,2.5,7.84,3.74,10.15-1.85-.03-4.33-.01-7.26.19,0,0-1.8.12-3.62.33-6.61.74-18.98,4.16-24.74,4.29-9.71.21-23.34-2.82-27.52-11.38-3.92-7.58-1.78-16.82,3.42-23.56,4.7-6.09,12.27-6.81,15.99-7.37,1.7-.25,7.45-1.09,13.9.68,1.73.47,3.17,1.04,8.62,2.69,2.53.76,4.62,1.37,6.04,1.77-.25-2.46-1.04-6.83-3.87-11.36-3.9-6.24-9.29-8.99-11.47-10.07-5.01-2.47-9.64-2.99-12.5-3.07h-.09s-.46-.01-.64-.01c-6.7,0-13.6,1.63-21.12,4.99-4.18,1.89-7.01,5.11-9.76,8.22-.49.56-.98,1.11-1.48,1.66C4.17,24.61,1,34.63,1.73,47.25c.91,14.75,12.01,28.8,26.4,33.41,3.01.95,5.7,1.63,8.22,2.1,1.4.26,2.77.46,4.08.58h.14s.1,0,.1,0c5.53,0,10.64-.95,15.18-2.81,1.8-.74,3.96-1.83,8.28-4.02.64-.33,1.24-.63,1.81-.93,3.14-1.62,5.17-2.76,6.66-3.59,1.55-.87,2.48-1.39,3.42-1.76.59-.23,1.18-.42,1.8-.59,1.45-.38,2.95-.58,4.45-.58,4.28,0,8.43,1.56,11.68,4.39,2.72,2.37,5.63,4.32,8.63,5.79,2.62,1.31,5.44,2.01,8.17,2.69.85.21,1.71.42,2.57.66,1.53.41,3.12.83,4.83.83.21,0,.43,0,.63-.02,1.37-.08,2.78-.13,4.14-.18,2.1-.08,4.27-.16,6.37-.35,5.55-.5,10.98-2.52,16.65-6.21,4.13-2.79,8.75-6.4,11.76-12.05l.02-.05c2.59-5.18,5.07-10.87,5.65-17.38v-.06c.14-2.23-.09-4.32-.31-6.35ZM142.42,43.61c-.12.83-.34,1.7-.63,2.51-1.57,3.98-2.95,7.9-6.44,11.04l-.06.05c-5.75,5.08-14.21,6.42-22.04,5.04-1.81-.29-3.51-.73-5.22-1.23-1.43-.67-14.48-7.05-16-19.65-.22-1.83-.72-6.29,1.72-10.63,5.61-9.98,21.02-9.3,22.91-9.19,2,.12,10.68.82,17.99,7.36,1.93,1.73,8.78,7.79,7.79,14.69Z"/>
  </g>
</svg>